<svg xmlns="http://www.w3.org/2000/svg" viewBox="0 0 64 64">
<rect width="64" height="64" rx="14" fill="#2f4d6e"/>
<g fill="none" stroke="#f3efe4" stroke-width="3" stroke-linecap="round">
<circle cx="32" cy="30" r="17"/>
<g transform="rotate(-30 32 30)">
<path d="M24.5 16.5c-6 8.5-6 18.5 0 27"/>
<path d="M32 13.2c-7.5 10-7.5 23.6 0 33.6"/>
<path d="M39.5 16.5c6 8.5 6 18.5 0 27"/>
</g>
<g transform="rotate(38 32 30)">
<path d="M28 14.8c-6.5 9-6.5 21.4 0 30.4"/>
<path d="M37 15.5c6 8.7 6 20.3 0 29"/>
</g>
<path d="M33 47c-7 4.5-16 1.5-20 9" stroke="#c98f0a"/>
</g>
</svg>
